<svg xmlns="http://www.w3.org/2000/svg" viewBox="0 0 64 64" fill="none">
  <rect width="64" height="64" rx="14" fill="#1A3C32"/>
  <path d="M22.5 49.5C23 40 23.2 31.5 23.6 24.8C24 18.8 27.8 15.2 34.2 15.6C40.8 16 44.8 20.6 44.2 26.6C43.6 32.4 38.4 36.2 32.4 35.4" stroke="#F4EFE6" stroke-width="6.4" stroke-linecap="round" stroke-linejoin="round"/>
  <path d="M39.2 16.2C41.6 13.1 45.8 12.4 48.2 14.6C50.4 16.6 50.2 20.6 47.4 23.2C44.8 25.6 40.8 25.8 38.6 23.6C37.4 22.4 37.2 19.6 39.2 16.2Z" fill="#2F8F62"/>
  <path d="M38.8 19.8C39.6 18.2 41.4 17.2 42.8 17.6C43.2 19.2 42.6 21.4 41.2 22.6C40 23.6 38.6 23.4 38.2 22.2C38 21.4 38.3 20.6 38.8 19.8Z" fill="#C4A46A"/>
</svg>
